<svg xmlns="http://www.w3.org/2000/svg" width="28" height="28" id="database">
  <circle cx="14" cy="14" r="14" fill="#50b748" fill-rule="evenodd"></circle>
  <path fill="#fff" d="M17.51 6c-.22.002-.438.02-.655.055l-.101.013A4.5 4.5 0 0 0 13.274 9H7.161C6.522 9 6 9.52 6 10.16v2.68c0 .25.098.47.234.66-.136.19-.234.41-.234.66v2.68c0 .25.098.47.234.66-.136.19-.234.41-.234.66v2.68c0 .64.522 1.16 1.162 1.16H17.84c.64 0 1.16-.52 1.16-1.16v-2.68c0-.25-.096-.47-.232-.66.136-.19.232-.41.232-.66v-2.1a4.5 4.5 0 0 0 2.164-1.62v-.005a4.5 4.5 0 0 0 .356-.574l.002-.004c0-.003.002-.005.003-.008a4.5 4.5 0 0 0 .22-.524 4.394 4.394 0 0 0 .179-.648 4.42 4.42 0 0 0 .049-.334 4.5 4.5 0 0 0 .03-.389c.002-.045.013-.087.013-.132 0-.04-.011-.078-.012-.118a4.496 4.496 0 0 0-.318-1.548l-.061-.149a4.5 4.5 0 0 0-.36-.66c-.011-.018-.02-.037-.033-.055a4.5 4.5 0 0 0-.494-.601c-.022-.024-.043-.048-.066-.07a4.502 4.502 0 0 0-.602-.497c-.022-.015-.043-.032-.066-.047a4.502 4.502 0 0 0-.676-.367l-.111-.049a4.5 4.5 0 0 0-.72-.226l-.132-.03A4.492 4.492 0 0 0 17.51 6zm.004 1.002c.236 0 .468.023.691.068h.004a.46.46 0 0 1 .035.01 3.47 3.47 0 0 1 1.211.512l.018.012c.17.116.329.249.476.392l.055.05c.134.135.253.283.363.439a3.506 3.506 0 0 1 .389.715 3.472 3.472 0 0 1 .193.665c.035.189.056.383.059.58l.002.055a3.606 3.606 0 0 1-.004.082 3.476 3.476 0 0 1-.096.73 3.473 3.473 0 0 1-.201.602 3.499 3.499 0 0 1-.252.467 3.547 3.547 0 0 1-.059.096l-.015.021c-.104.148-.22.286-.344.416a3.578 3.578 0 0 1-.078.084 3.537 3.537 0 0 1-.441.362l-.084.06a3.487 3.487 0 0 1-.496.27 3.588 3.588 0 0 1-.114.05c-.173.071-.355.126-.54.168-.039.01-.077.02-.116.028a3.5 3.5 0 0 1-.627.062L17.51 14l-.03-.002a3.5 3.5 0 0 1-.654-.066l-.011-.002-.032-.008a3.498 3.498 0 0 1-2.168-1.461l-.006-.006a3.505 3.505 0 0 1-.316-.586l-.006-.014a3.463 3.463 0 0 1-.273-1.353c0-1.444.878-2.684 2.128-3.219l.018-.008c.2-.084.409-.15.625-.195l.041-.01A3.5 3.5 0 0 1 17.514 7zm-1.053 1.65-.707.707 1.057 1.057-1.057 1.057.707.707 1.057-1.057 1.056 1.057.707-.707-1.056-1.057 1.056-1.057-.707-.707-1.056 1.057-1.057-1.057ZM7.162 10h5.881c-.02.166-.031.333-.033.5.002.213.019.426.05.637l.014.086a4.5 4.5 0 0 0 .373 1.199l.014.03c.09.19.193.372.309.548H7.162A.161.161 0 0 1 7 12.84v-2.68c0-.089.073-.16.162-.16ZM8 11v1h3v-1H8zm-.838 3h7.522a4.5 4.5 0 0 0 2.826 1h.002l.002.002c.014 0 .027-.003.04-.004.15-.002.298-.01.446-.027v1.869a.16.16 0 0 1-.16.16H7.162A.161.161 0 0 1 7 16.84v-2.68c0-.089.073-.16.162-.16ZM8 15v1h3v-1H8zm8.01 0v1h1v-1h-1zm-8.848 3H17.84a.16.16 0 0 1 .16.16v2.68a.16.16 0 0 1-.16.16H7.162A.161.161 0 0 1 7 20.84v-2.68c0-.089.073-.16.162-.16ZM8 19v1h3v-1H8zm8.01 0v1h1v-1h-1z"></path>
</svg>
